<?xml version="1.0" encoding="UTF-8"?>
<svg width="128" height="128" viewBox="0 0 128 128" xmlns="http://www.w3.org/2000/svg">
  <!-- Versione icona semplificata per launcher e favicon -->
  <defs>
    <linearGradient id="iconGradient" x1="0%" y1="0%" x2="100%" y2="100%">
      <stop offset="0%" style="stop-color:#667eea"/>
      <stop offset="100%" style="stop-color:#764ba2"/>
    </linearGradient>
    
    <filter id="shadow">
      <feDropShadow dx="0" dy="2" stdDeviation="3" flood-opacity="0.2"/>
    </filter>
  </defs>
  
  <!-- Background circle (opzionale per alcuni contesti) -->
  <circle cx="64" cy="64" r="60" fill="white" filter="url(#shadow)"/>
  
  <!-- Loto semplificato -->
  <g transform="translate(64,64) scale(0.8)">
    <!-- Tre petali principali -->
    <path d="M 0,-40 Q -10,-30 -10,-10 Q -10,5 0,10 Q 10,5 10,-10 Q 10,-30 0,-40" 
          fill="url(#iconGradient)"/>
    
    <path d="M 0,-40 Q -10,-30 -10,-10 Q -10,5 0,10 Q 10,5 10,-10 Q 10,-30 0,-40" 
          fill="url(#iconGradient)" transform="rotate(-30)" opacity="0.9"/>
    
    <path d="M 0,-40 Q -10,-30 -10,-10 Q -10,5 0,10 Q 10,5 10,-10 Q 10,-30 0,-40" 
          fill="url(#iconGradient)" transform="rotate(30)" opacity="0.9"/>
    
  </g>
</svg>